<?xml version="1.0" standalone="no"?>
<!DOCTYPE svg PUBLIC "-//W3C//DTD SVG 20010904//EN"
 "http://www.w3.org/TR/2001/REC-SVG-20010904/DTD/svg10.dtd">
<svg version="1.0" xmlns="http://www.w3.org/2000/svg"
 width="798.000000pt" height="1280.000000pt" viewBox="0 0 798.000000 1280.000000"
 preserveAspectRatio="xMidYMid meet">
<metadata>
Created by potrace 1.15, written by Peter Selinger 2001-2017
</metadata>
<g transform="translate(0.000000,1280.000000) scale(0.100000,-0.100000)"
fill="#000000" stroke="none">
<path d="M3475 12789 c-112 -12 -261 -45 -390 -86 -642 -207 -1168 -779 -1360
-1479 -95 -348 -111 -742 -44 -1089 85 -442 288 -837 594 -1154 92 -96 243
-223 327 -276 27 -17 48 -33 48 -36 0 -3 -24 -11 -52 -18 -220 -56 -615 -205
-843 -318 -375 -187 -607 -348 -864 -598 -191 -187 -224 -232 -355 -498 -320
-649 -483 -1254 -527 -1947 -15 -238 -8 -490 22 -840 l23 -265 110 -110 c272
-271 590 -451 837 -471 l81 -7 -7 154 c-10 219 23 979 54 1254 12 101 12 21 1
-125 -24 -304 -40 -717 -39 -982 0 -158 -2 -292 -6 -298 -3 -5 -1 -81 5 -167
69 -1000 380 -2885 523 -3173 26 -53 8 -47 322 -100 1091 -181 2214 -207 3515
-79 252 24 736 82 743 88 9 9 43 423 147 1791 103 1364 100 1324 108 1331 4 3
76 23 160 44 465 115 781 260 1158 532 105 75 117 90 147 188 48 158 62 295
61 615 -1 505 -76 1020 -235 1615 -135 506 -361 1135 -485 1349 -347 604
-1125 1027 -2165 1177 l-157 22 122 121 c322 321 532 719 621 1178 91 472 38
961 -151 1397 -369 847 -1187 1350 -2049 1260z m-2230 -6746 c-27 -210 -37
-266 -30 -168 8 100 48 391 52 378 3 -7 -7 -101 -22 -210z m4939 -268 c33
-182 68 -433 63 -448 -2 -7 -7 15 -11 48 -8 65 -71 458 -82 515 -4 19 -4 33
-1 30 3 -3 17 -68 31 -145z m73 -517 c-2 -13 -4 -5 -4 17 -1 22 1 32 4 23 2
-10 2 -28 0 -40z m10 -75 c-3 -10 -5 -4 -5 12 0 17 2 24 5 18 2 -7 2 -21 0
-30z m-5120 -70 c-3 -10 -5 -4 -5 12 0 17 2 24 5 18 2 -7 2 -21 0 -30z m5240
-1065 c-3 -8 -6 -5 -6 6 -1 11 2 17 5 13 3 -3 4 -12 1 -19z m20 -255 c-3 -10
-5 -2 -5 17 0 19 2 27 5 18 2 -10 2 -26 0 -35z"/>
</g>
</svg>
